<svg xmlns="http://www.w3.org/2000/svg" viewBox="0 0 480 620" role="img" aria-label="Waifu violeta">
  <defs>
    <filter id="shadow" x="-20%" y="-20%" width="140%" height="140%">
      <feDropShadow dx="0" dy="18" stdDeviation="14" flood-color="#000000" flood-opacity="0.35"/>
    </filter>
    <linearGradient id="hairGrad" x1="120" y1="80" x2="360" y2="360" gradientUnits="userSpaceOnUse">
      <stop offset="0" stop-color="#a855f7"/>
      <stop offset="1" stop-color="#111827"/>
    </linearGradient>
    <linearGradient id="dressGrad" x1="150" y1="360" x2="330" y2="600" gradientUnits="userSpaceOnUse">
      <stop offset="0" stop-color="#7c3aed"/>
      <stop offset="1" stop-color="#f0abfc"/>
    </linearGradient>
  </defs>

  <g filter="url(#shadow)">
    <path d="M115 185 C105 95 175 34 242 38 C324 43 382 110 367 202 C413 257 391 338 333 368 C277 397 197 395 141 356 C91 321 77 241 115 185Z" fill="url(#hairGrad)"/>
    <path d="M134 203 C143 101 337 102 348 203 C360 306 312 379 241 379 C170 379 122 306 134 203Z" fill="#f7cdbd"/>
    <path d="M133 203 C164 160 202 126 244 121 C289 116 328 148 347 204 C346 130 300 72 240 72 C178 72 132 128 133 203Z" fill="url(#hairGrad)"/>
    <path d="M172 250 C194 234 216 235 231 251" fill="none" stroke="#3b0764" stroke-width="12" stroke-linecap="round"/>
    <path d="M251 251 C270 235 294 235 313 250" fill="none" stroke="#3b0764" stroke-width="12" stroke-linecap="round"/>
    <circle cx="206" cy="258" r="9" fill="#fff"/>
    <circle cx="287" cy="258" r="9" fill="#fff"/>
    <path d="M219 306 C232 318 253 318 266 306" fill="none" stroke="#9f5f55" stroke-width="8" stroke-linecap="round"/>
    <circle cx="170" cy="292" r="18" fill="#ff9eb5" opacity="0.42"/>
    <circle cx="315" cy="292" r="18" fill="#ff9eb5" opacity="0.42"/>
    <path d="M187 374 L295 374 C330 407 353 493 366 585 L111 585 C125 492 150 407 187 374Z" fill="url(#dressGrad)"/>
    <path d="M171 410 C126 428 88 465 65 514" fill="none" stroke="#f7cdbd" stroke-width="33" stroke-linecap="round"/>
    <path d="M310 410 C354 428 392 465 415 514" fill="none" stroke="#f7cdbd" stroke-width="33" stroke-linecap="round"/>
    <path d="M169 398 C206 430 274 430 312 398" fill="none" stroke="#ffffff" stroke-width="18" stroke-linecap="round" opacity="0.9"/>
    <path d="M188 374 C210 405 271 405 294 374" fill="#f0abfc" opacity="0.9"/>
    <circle cx="242" cy="444" r="20" fill="#ffffff" opacity="0.9"/>
    <path d="M221 438 L263 438 L242 464Z" fill="#f0abfc"/>
    <path d="M158 91 L196 29 L226 101Z" fill="#a855f7"/><path d="M322 91 L284 29 L254 101Z" fill="#a855f7"/><circle cx="242" cy="92" r="28" fill="#facc15"/>
  </g>
</svg>
